<?xml version="1.0" encoding="utf-8"?>
<!-- Generator: Adobe Illustrator 18.1.0, SVG Export Plug-In . SVG Version: 6.00 Build 0)  -->
<!DOCTYPE svg PUBLIC "-//W3C//DTD SVG 1.1//EN" "http://www.w3.org/Graphics/SVG/1.1/DTD/svg11.dtd" [
	<!ENTITY ns_extend "http://ns.adobe.com/Extensibility/1.0/">
	<!ENTITY ns_ai "http://ns.adobe.com/AdobeIllustrator/10.0/">
	<!ENTITY ns_graphs "http://ns.adobe.com/Graphs/1.0/">
	<!ENTITY ns_vars "http://ns.adobe.com/Variables/1.0/">
	<!ENTITY ns_imrep "http://ns.adobe.com/ImageReplacement/1.0/">
	<!ENTITY ns_sfw "http://ns.adobe.com/SaveForWeb/1.0/">
	<!ENTITY ns_custom "http://ns.adobe.com/GenericCustomNamespace/1.0/">
	<!ENTITY ns_adobe_xpath "http://ns.adobe.com/XPath/1.0/">
]>
<svg version="1.1" id="Layer_1" xmlns:x="&ns_extend;" xmlns:i="&ns_ai;" xmlns:graph="&ns_graphs;"
	 xmlns="http://www.w3.org/2000/svg" xmlns:xlink="http://www.w3.org/1999/xlink" x="0px" y="0px" viewBox="0 0 110 110"
	 enable-background="new 0 0 110 110" xml:space="preserve">
<metadata>
	<sfw  xmlns="&ns_sfw;">
		<slices></slices>
		<sliceSourceBounds  width="270.6" height="128" bottomLeftOrigin="true" x="0" y="-118"></sliceSourceBounds>
	</sfw>
</metadata>
<g>
	<path fill="#FFF200" d="M17.8,31l-0.5,0.7l-0.7-0.5l1.6-2.3l0.7,0.5l-0.5,0.7l4.2,2.9l1.2-1.8L21.9,30l0.5-0.8l2.6,1.8l-2.8,4.1
		l-0.7-0.5l0.5-0.7L17.8,31z"/>
	<path fill="#FFF200" d="M24.7,27.8l0.8,1.4l0.6-0.6l0.6,0.6l-1.8,2l-0.6-0.6l0.6-0.6L22.3,25l-0.5,0.6l-0.6-0.5l2.4-2.5l0.6,0.5
		l-0.5,0.6l5.1,2.2l0.5-0.6l0.6,0.6l-1.8,1.9l-0.6-0.6l0.6-0.6L26.4,26L24.7,27.8z M22.9,24.3L22.9,24.3l1.4,2.7l1.3-1.4L22.9,24.3z
		"/>
	<path fill="#FFF200" d="M36.1,18.8c0.5,1.5-0.1,2.9-1.5,3.8c-1.7,1.1-3.7,0.6-4.8-1.1c-1.2-1.8-0.8-3.7,0.9-4.8
		c0.7-0.5,1.5-0.7,2.3-0.6l-0.3-0.5l0.7-0.5l1.2,1.8l-0.7,0.5c-0.8-0.5-1.8-0.5-2.6,0c-1.1,0.7-1.4,2.2-0.5,3.4
		c0.8,1.2,2.3,1.6,3.4,0.9c0.8-0.5,1.3-1.6,0.9-2.9L36.1,18.8z"/>
	<path fill="#FFF200" d="M38.5,17.6l0.1,1.6l0.8-0.3l0.3,0.8l-2.5,1L36.9,20l0.8-0.3l-0.3-5.5l-0.7,0.3l-0.3-0.7l3.2-1.3l0.3,0.7
		l-0.7,0.3l3.7,4.1l0.7-0.3l0.3,0.8l-2.5,1L41,18.2l0.8-0.3l-1.1-1.2L38.5,17.6z M38.2,13.7L38.2,13.7l0.2,3l1.8-0.8L38.2,13.7z"/>
	<path fill="#FFF200" d="M42.3,12.3l-0.8,0.2l-0.2-0.8l2.6-0.6l0.2,0.8L43.3,12l2.8,4l0.6-4.8l-0.8,0.2l-0.2-0.8l2.5-0.6l0.2,0.8
		L47.6,11l-0.8,6.4l-0.9,0.2L42.3,12.3z"/>
	<path fill="#FFF200" d="M51.1,14.2l-0.4,1.6l0.8-0.1l0.1,0.9l-2.7,0.2l-0.1-0.9l0.8-0.1l1.5-5.3l-0.8,0.1l-0.1-0.8l3.5-0.3l0.1,0.8
		L53,10.4l2.2,5.1l0.8-0.1l0.1,0.9l-2.7,0.2l-0.1-0.9l0.8-0.1L53.5,14L51.1,14.2z M52.1,10.4L52.1,10.4l-0.8,2.9l1.9-0.1L52.1,10.4z
		"/>
	<path fill="#FFF200" d="M59.2,10.4l0.1-0.8l3.2,0.5c2.6,0.4,3.1,2.3,2.9,3.9c-0.4,2.2-1.7,3.2-4.1,2.8l-3.1-0.5l0.1-0.8l0.9,0.2
		l0.8-5L59.2,10.4z M60.3,15.8l1.2,0.2c1.9,0.3,2.6-0.7,2.9-2.2c0.2-1.4-0.3-2.6-2-2.9l-1.2-0.2L60.3,15.8z"/>
	<path fill="#FFF200" d="M68.1,12.2l-0.8-0.3l0.3-0.8l5.3,1.9l-0.7,1.9l-0.8-0.3l0.4-1.1l-2.7-1l-0.7,1.9l2.4,0.8l-0.3,0.8l-2.4-0.8
		l-0.7,2.1l2.7,1l0.4-1.2l0.8,0.3l-0.7,2l-5.3-1.9l0.3-0.8l0.8,0.3L68.1,12.2z"/>
	<path fill="#FFF200" d="M72.1,21.3c0.2,0.2,0.4,0.3,0.6,0.4c0.4,0.2,0.8,0.1,1.1-0.4l3.1-5.5l-0.8-0.4l0.4-0.7l2.4,1.4l-0.4,0.7
		l-0.8-0.4l-3.2,5.6c-0.7,1.2-1.7,0.9-2.3,0.6c-0.2-0.1-0.5-0.3-0.6-0.5L72.1,21.3z"/>
	<path fill="#FFF200" d="M82.3,19.5l0.5-0.7l2.1,1.6l-0.5,0.7l-0.7-0.5l-2.3,3.2c-1,1.4-2.3,1-3.2,0.3c-1.6-1.2-1.4-2.3-0.7-3.2
		l2.3-3.1l-0.7-0.5l0.5-0.7l2.1,1.6l-0.5,0.7l-0.6-0.5l-2.4,3.2c-0.6,0.8-0.3,1.4,0.3,1.9c0.8,0.6,1.4,0.5,2-0.3L83,20L82.3,19.5z"
		/>
	<path fill="#FFF200" d="M84,25.6l-1.5,0.7l0.6,0.6l-0.6,0.6l-1.9-1.9l0.6-0.6l0.6,0.6l5-2.3l-0.6-0.6l0.6-0.5l2.4,2.5l-0.6,0.5
		l-0.6-0.6l-2.5,4.9l0.5,0.6l-0.6,0.6l-1.9-1.9l0.6-0.6l0.6,0.6l0.8-1.4L84,25.6z M87.5,24L87.5,24l-2.8,1.2l1.3,1.4L87.5,24z"/>
	<path fill="#FFF200" d="M90.9,28l-0.5-0.8l0.7-0.5l1.3,1.9L89.5,34l0,0l3.7-2.5l-0.5-0.8l0.7-0.5l1.6,2.3l-0.7,0.5l-0.6-0.8l-5,3.4
		l-0.6-0.9l3-5.9l0,0l-4.1,2.7l0.5,0.8l-0.7,0.5l-1.6-2.3l0.7-0.5l0.5,0.8L90.9,28z"/>
</g>
<g>
	<path fill="#FFF200" d="M95.9,73l0.3-0.7l0.8,0.4l-1.1,2.3l-0.8-0.4l0.3-0.7l-4.6-2.1l-0.3,0.7l-0.8-0.4l1.1-2.3l0.8,0.4l-0.3,0.7
		L95.9,73z"/>
	<path fill="#FFF200" d="M94.8,75.5l0.7,0.5l-1.7,2.7c-1.4,2.2-3.3,2-4.7,1.1c-1.9-1.2-2.3-2.8-1-4.9l1.7-2.6l0.7,0.5L90,73.6
		l4.3,2.7L94.8,75.5z M89.4,74.4l-0.6,1c-1,1.6-0.3,2.7,0.9,3.5c1.2,0.8,2.5,0.7,3.4-0.7l0.7-1L89.4,74.4z"/>
	<path fill="#FFF200" d="M89.7,83l0.6-0.7l0.6,0.6l-3.8,4.2l-1.5-1.4l0.6-0.6l0.9,0.8l1.9-2.2l-1.5-1.4l-1.7,1.9l-0.6-0.6l1.7-1.9
		l-1.7-1.5l-1.9,2.2l0.9,0.8L83.6,84l-1.6-1.4l3.8-4.2l0.6,0.6l-0.6,0.7L89.7,83z"/>
	<path fill="#FFF200" d="M81.8,86l-0.5-1.5L80.6,85L80,84.3l2.1-1.7l0.5,0.7L82,83.8l1.8,5.2l0.6-0.5l0.5,0.6l-2.7,2.2l-0.5-0.6
		l0.6-0.5l-4.7-2.9l-0.6,0.5l-0.5-0.7l2.1-1.7l0.5,0.7l-0.7,0.5l1.4,0.9L81.8,86z M83,89.7L83,89.7l-1-2.9L80.5,88L83,89.7z"/>
	<path fill="#FFF200" d="M77.7,89.2l-0.7,0.4l-0.3-0.5c-0.7-0.4-1.4-0.5-1.9-0.2c-0.6,0.3-0.8,1-0.5,1.6c0.7,1.2,2.3-0.3,3.7,0.1
		c0.4,0.1,0.7,0.4,1,0.8c0.6,1.1,0.1,2.1-0.8,2.6c-0.5,0.3-1,0.4-1.6,0.3l0.2,0.4l-0.7,0.4l-1-1.8l0.7-0.4l0.2,0.4
		c0.6,0.3,1.1,0.3,1.6,0c0.6-0.3,0.8-0.9,0.6-1.3c-0.1-0.2-0.3-0.3-0.5-0.4c-0.7-0.2-2.1,0.7-3.2,0.4c-0.5-0.1-1-0.5-1.2-1
		c-0.6-1-0.2-2.2,0.9-2.8c0.5-0.3,1.1-0.4,1.8-0.2l-0.3-0.5l0.7-0.4L77.7,89.2z"/>
	<path fill="#FFF200" d="M65.9,91.7c-0.7-0.1-1.4-0.1-1.8,0.2l0.1-0.9c0.9-0.5,2,0.2,2.9-0.1c0.3-0.1,0.5-0.2,0.6-0.4l0.4,0.3
		c-0.2,0.3-0.3,0.4-0.6,0.6l0,0c1.6,0,2.8,1.1,3.3,2.6c0.6,2-0.4,3.8-2.4,4.3c-2,0.6-3.8-0.4-4.4-2.3C63.3,93.8,64.6,92.2,65.9,91.7
		L65.9,91.7z M66.6,92.4c-1.3,0.4-2,1.8-1.6,3.2c0.4,1.4,1.8,2.2,3.1,1.8c1.3-0.4,2-1.7,1.5-3.2C69.2,92.8,67.9,92,66.6,92.4z"/>
	<path fill="#FFF200" d="M59.7,99l0.1,0.8l-2.7,0.3l-0.1-0.8l0.8-0.1l-0.4-3.9c-0.2-1.7,1-2.3,2.1-2.4c2-0.2,2.6,0.7,2.7,1.9
		l0.4,3.9l0.8-0.1l0.1,0.8L61,99.7l-0.1-0.8l0.8-0.1l-0.4-3.9c-0.1-1-0.7-1.2-1.5-1.1c-1,0.1-1.4,0.6-1.3,1.5l0.4,3.8L59.7,99z"/>
	<path fill="#FFF200" d="M55.1,99.3l0.9,0l0,0.9l-5.6-0.3l0.1-2l0.8,0l-0.1,1.2l2.9,0.1l0.1-2l-2.5-0.1l0-0.9l2.5,0.1l0.1-2.2
		L51.4,94l-0.1,1.2l-0.8,0l0.1-2.1l5.6,0.3l0,0.9l-0.9,0L55.1,99.3z"/>
	<path fill="#FFF200" d="M40,93.8c0.7-2.4,2.6-2.8,4.3-2.3c2.8,0.8,2.8,3.2,2.5,4.4c-0.5,1.5-1.9,3.1-4.3,2.4
		c-0.9-0.3-1.5-0.7-2-1.5l-0.2,0.7l-0.8-0.3l0.6-2.1l0.8,0.3c0.1,0.9,0.8,1.8,1.8,2c1.4,0.4,2.6-0.3,3.1-1.8
		c0.4-1.5-0.3-2.8-1.6-3.2c-1.1-0.3-2.1,0.1-2.6,0.9l1.2,0.4l-0.2,0.8L40,93.8z"/>
	<path fill="#FFF200" d="M34.4,94l-0.4,0.8l-2.4-1.2l0.4-0.8l0.8,0.4l1.8-3.5c0.8-1.6,2.1-1.3,3.1-0.8c1.7,0.9,1.7,2,1.2,3.1
		l-1.8,3.5l0.8,0.4l-0.4,0.8l-2.4-1.2l0.4-0.8l0.7,0.4l1.8-3.5c0.4-0.9,0.1-1.4-0.6-1.8c-0.9-0.5-1.5-0.3-1.9,0.6l-1.8,3.4L34.4,94z
		"/>
	<path fill="#FFF200" d="M33.2,89.3l-0.7-0.5l0.4-0.5c0.1-0.8-0.1-1.5-0.6-1.8c-0.6-0.4-1.3-0.3-1.6,0.2c-0.8,1.1,1.2,2,1.5,3.5
		c0.1,0.4,0,0.8-0.4,1.3c-0.7,1-1.9,0.9-2.7,0.3c-0.4-0.3-0.8-0.8-0.9-1.3l-0.3,0.4l-0.7-0.5l1.2-1.7l0.7,0.5l-0.3,0.4
		c0,0.7,0.2,1.1,0.7,1.5c0.6,0.4,1.1,0.4,1.4,0c0.1-0.2,0.2-0.4,0.2-0.6c-0.1-0.7-1.5-1.6-1.7-2.7c-0.1-0.5,0.1-1.1,0.4-1.5
		c0.7-0.9,1.9-1.1,2.9-0.4c0.5,0.4,0.8,0.9,1,1.5l0.3-0.5l0.7,0.5L33.2,89.3z"/>
	<path fill="#FFF200" d="M23.8,83.7l0.6,0.6l-1.2,1.3l1,1l3.5-3.7l-0.6-0.6l0.6-0.6l2,1.9l-0.6,0.6l-0.6-0.6L25,87.2l1,1l1.2-1.3
		l0.6,0.6L26,89.4l-4-3.8L23.8,83.7z"/>
	<path fill="#FFF200" d="M23.6,80.5l1.6-0.5l-0.5-0.7l0.7-0.5L27,81l-0.7,0.5l-0.5-0.7l-5.3,1.7l0.5,0.6l-0.6,0.5l-2.1-2.8l0.6-0.5
		l0.5,0.6l3-4.6l-0.5-0.6l0.7-0.5l1.6,2.1l-0.7,0.5l-0.5-0.7l-0.9,1.3L23.6,80.5z M19.9,81.7L19.9,81.7l2.9-0.9l-1.2-1.5L19.9,81.7z
		"/>
	<path fill="#FFF200" d="M17,77.4l0.4,0.9l-0.8,0.4l-1.1-2.1l3.4-5.1l0,0l-4,2l0.4,0.8l-0.8,0.4l-1.3-2.5l0.8-0.4l0.5,0.9l5.4-2.8
		l0.5,1l-3.7,5.5l0,0l4.4-2.2l-0.5-0.9l0.8-0.4l1.3,2.5L22,76l-0.4-0.9L17,77.4z"/>
</g>
<path fill="#FFF200" d="M54.8,2.5c14,0,27.1,5.4,37,15.3s15.3,23,15.3,37s-5.4,27.1-15.3,37c-9.9,9.9-23,15.3-37,15.3
	s-27.1-5.4-37-15.3c-9.9-9.9-15.3-23-15.3-37s5.4-27.1,15.3-37C27.7,7.9,40.8,2.5,54.8,2.5 M54.8,1C25.1,1,1,25.1,1,54.8
	s24.1,53.8,53.8,53.8s53.8-24.1,53.8-53.8S84.5,1,54.8,1L54.8,1z"/>
<path fill="#FFF200" d="M14.3,43.9c-3.6,0-6.5,2.9-6.5,6.5c0,3.6,2.9,6.5,6.5,6.5c3.6,0,6.5-2.9,6.5-6.5S17.9,43.9,14.3,43.9z
	 M16,55.8l-1.5-1V53l1.9-1.1l1.7,1l0.1,1.7C17.6,55.2,16.8,55.6,16,55.8z M10.5,54.6l0.1-1.7l1.7-1l1.9,1.1v1.9l-1.5,1
	C11.8,55.6,11.1,55.2,10.5,54.6z M8.6,50.4c0-0.4,0-0.8,0.1-1.2l1.6-0.8l1.7,1v2.1l-1.7,1l-1.6-0.8C8.7,51.3,8.6,50.8,8.6,50.4z
	 M12.6,45l1.5,1v1.9l-1.9,1.1l-1.7-1l-0.1-1.7C11.1,45.7,11.8,45.2,12.6,45z M18.2,46.2L18.1,48l-1.7,1l-1.9-1.1V46l1.5-1
	C16.8,45.2,17.6,45.7,18.2,46.2z M14.3,52.6l-1.9-1.1v-2.1l1.9-1.1l1.9,1.1v2.1L14.3,52.6z M18.3,52.4l-1.7-1v-2.1l1.7-1l1.6,0.8
	c0.1,0.4,0.1,0.8,0.1,1.2c0,0.4,0,0.8-0.1,1.2L18.3,52.4z M19.7,48.6L18.5,48l0.1-1.3C19.1,47.2,19.4,47.9,19.7,48.6z M15.4,44.8
	l-1.1,0.7l-1.1-0.7c0.4-0.1,0.7-0.1,1.1-0.1S15,44.8,15.4,44.8z M10,46.7l0.1,1.3l-1.2,0.6C9.2,47.9,9.5,47.2,10,46.7z M8.9,52.3
	l1.2,0.6L10,54.1C9.5,53.6,9.2,53,8.9,52.3z M13.2,56l1.1-0.7l1.1,0.7c-0.4,0.1-0.7,0.1-1.1,0.1S13.6,56.1,13.2,56z M18.6,54.1
	l-0.1-1.3l1.2-0.6C19.4,53,19.1,53.6,18.6,54.1z"/>
<path fill="#FFF200" d="M96.1,43.9c-3.6,0-6.5,2.9-6.5,6.5c0,3.6,2.9,6.5,6.5,6.5c3.6,0,6.5-2.9,6.5-6.5S99.7,43.9,96.1,43.9z
	 M97.8,55.8l-1.5-1V53l1.9-1.1l1.7,1l0.1,1.7C99.4,55.2,98.6,55.6,97.8,55.8z M92.3,54.6l0.1-1.7l1.7-1l1.9,1.1v1.9l-1.5,1
	C93.6,55.6,92.9,55.2,92.3,54.6z M90.4,50.4c0-0.4,0-0.8,0.1-1.2l1.6-0.8l1.7,1v2.1l-1.7,1l-1.6-0.8C90.5,51.3,90.4,50.8,90.4,50.4z
	 M94.4,45l1.5,1v1.9L94,48.9l-1.7-1l-0.1-1.7C92.9,45.7,93.6,45.2,94.4,45z M100,46.2L99.9,48l-1.7,1l-1.9-1.1V46l1.5-1
	C98.6,45.2,99.4,45.7,100,46.2z M96.1,52.6l-1.9-1.1v-2.1l1.9-1.1l1.9,1.1v2.1L96.1,52.6z M100.1,52.4l-1.7-1v-2.1l1.7-1l1.6,0.8
	c0.1,0.4,0.1,0.8,0.1,1.2c0,0.4,0,0.8-0.1,1.2L100.1,52.4z M101.5,48.6l-1.2-0.6l0.1-1.3C100.9,47.2,101.3,47.9,101.5,48.6z
	 M97.2,44.8l-1.1,0.7L95,44.8c0.4-0.1,0.7-0.1,1.1-0.1C96.5,44.7,96.9,44.8,97.2,44.8z M91.8,46.7l0.1,1.3l-1.2,0.6
	C91,47.9,91.4,47.2,91.8,46.7z M90.8,52.3l1.2,0.6l-0.1,1.3C91.4,53.6,91,53,90.8,52.3z M95,56l1.1-0.7l1.1,0.7
	c-0.4,0.1-0.7,0.1-1.1,0.1C95.8,56.1,95.4,56.1,95,56z M100.4,54.1l-0.1-1.3l1.2-0.6C101.3,53,100.9,53.6,100.4,54.1z"/>
<path fill="none" d="M36.9,79.6c0.2,0.2,0.5,0.4,0.7,0.5C37.4,80,37.1,79.8,36.9,79.6z"/>
<g>
	<path fill="#FFF200" d="M43.2,26.5c-0.6,0.2-1.2,0.5-1.7,0.8C42.1,27.1,42.7,26.8,43.2,26.5L43.2,26.5z"/>
</g>
<path fill="none" d="M48.4,38.4C48.4,38.4,48.4,38.4,48.4,38.4l-0.2-0.3c0,0-0.1,0.1-0.1,0.1L48.4,38.4z"/>
<polygon fill="none" points="56.5,35.1 56.1,34.7 56.4,35.2 "/>
<polygon fill="none" points="60,38 60,38 60,38 "/>
<g>
	<path fill="#FFF200" d="M40.7,38c-0.2,0-0.3,0-0.5,0l0.6,0.3C40.8,38.2,40.7,38.1,40.7,38L40.7,38z"/>
</g>
<path fill="#A7CC39" d="M40.2,38L40.2,38C40.2,38,40.2,38,40.2,38L40.2,38z"/>
<path fill="#FFF200" d="M69.6,39.6c0,0-1.1,0.7-1.8,2.4c-0.3,0.2-0.5,0.4-0.8,0.6c0.3-1.4-0.1-2.1-0.4-2.5c0-0.1,0.1-0.2,0.2-0.3
	c-0.1,0.1-0.2,0.1-0.3,0.2c-0.1-0.1-0.2-0.1-0.2-0.1c0,0.1,0,0.1,0.1,0.2c-0.4,0.2-0.7,0.5-0.9,0.8c0.4-2.1,1.7-3.2,1.7-3.2
	c-1.4,0.7-2.1,2.1-2.4,3.3c-0.3-0.4-0.6-0.7-1.1-1c0,0,0.2,0.4,0.3,1c-0.2-0.1-0.3-0.2-0.5-0.2c0.1,0.1,0.2,0.2,0.3,0.4
	c-0.2,0.1-0.4,0.2-0.5,0.4c-0.1,0-0.2-0.1-0.3-0.1c0.1-0.3,0.3-0.5,0.4-0.7c-0.1,0-0.2,0-0.3,0.1c0.4-1.2,0.9-2.6,1.8-3.6
	c0,0-2.2,1.4-3,5c-0.1,0.1-0.1,0.2-0.2,0.4c0-0.2,0-0.4-0.1-0.6c0.1,0,0.1-0.1,0.2-0.1c-0.1,0-0.1,0-0.2-0.1
	c-0.2-1.1-0.8-2.3-2.1-3.2c0,0,0.6,1.2,0.6,2.8c-0.1,0.1-0.3,0.2-0.4,0.3c0,0-0.1,0-0.1,0c-0.1-0.1-0.1-0.1-0.2-0.2
	c0.2-0.3,0.3-0.6,0.5-0.8c-0.3,0-0.6,0.2-0.9,0.5c-0.1-0.1-0.2-0.1-0.3-0.2c0.4-0.9,0.9-1.6,0.9-1.6c-0.1,0.1-0.3,0.2-0.4,0.2
	c0,0,0,0,0-0.1c-0.5,0.3-0.9,0.7-1.2,1.1c-0.1,0-0.1,0-0.2-0.1c0,0,0.1,0.1,0.1,0.1c-0.1,0.2-0.2,0.3-0.3,0.5
	c-0.2,0.3-0.3,0.6-0.4,0.9c0-0.1-0.1-0.2-0.1-0.3c0.1-0.4,0.1-0.7,0.1-1.1c0,0,0.1-0.1,0.1-0.1c0,0-0.1,0-0.1,0
	c0-2.2-0.8-3.7-0.8-3.7c0.3,1.3,0.2,2.6,0,3.6c-0.3-0.4-0.7-0.7-1.1-1c0.3,0.4,0.7,1.1,0.9,1.9c-0.2-0.2-0.4-0.4-0.6-0.5
	c0.1-0.1,0.1-0.2,0.2-0.3c-0.1,0-0.3,0.1-0.4,0.1C54.6,40.1,54,40,54,40c0.3,0.3,0.6,0.6,0.8,0.9c-0.6,0.4-1,1.1-1.1,1.8
	c-0.1,0.1-0.2,0.2-0.3,0.4c0.1-0.3,0.1-0.5,0.1-0.7c0.2-0.7,0.6-1.4,0.9-1.8c-0.3,0-0.6,0.2-0.9,0.5c-0.2-1.4-1-1.7-1-1.7
	c0.2,0.4,0.2,0.9,0.2,1.3c-0.4,0.2-0.8,0.5-1,0.9c-0.4-2.2,1.3-3.6,1.3-3.6c-1.1,0.6-1.7,1.4-2,2.1c-0.1-0.1-0.3-0.2-0.4-0.3
	c0.2,0.2,0.3,0.5,0.3,0.8c-0.1,0.3-0.1,0.6-0.1,0.9c-0.1,0.3-0.2,0.7-0.4,1c0-0.1,0-0.2-0.1-0.2c0-0.1-0.1-0.3-0.1-0.4
	c0-0.1,0-0.1,0-0.2c0.2-0.2,0.3-0.5,0.6-0.7c0,0-0.3,0.1-0.6,0.3c0-0.5,0-1,0.1-1.5c0,0-0.3,0.3-0.6,0.8c-0.1-0.2-0.3-0.3-0.4-0.5
	c0.4-1,0.9-2,1.6-2.8c0,0-1.1,0.7-2,2.4c-0.2-0.1-0.4-0.3-0.6-0.4c0.1,0.3,0.3,0.6,0.3,0.9c-0.1,0.3-0.3,0.6-0.4,0.9
	c0-0.1-0.1-0.1-0.1-0.2c0,0,0.1-0.1,0.1-0.1c-0.1,0-0.1,0-0.2,0c-0.1-0.2-0.2-0.3-0.3-0.5c0.3-0.3,0.6-0.5,0.6-0.5
	c-0.3,0.1-0.5,0.2-0.7,0.3c-0.3-0.3-0.6-0.7-1-1c0,0,0.2,0.5,0.4,1.3c-0.3,0.2-0.5,0.4-0.7,0.6c-0.2,0.1-0.3,0.3-0.5,0.5
	c0,0,0,0,0,0c-0.2-0.2-0.4-0.3-0.6-0.4c0.1-0.3,0.2-0.5,0.3-0.6c-0.1,0-0.1,0-0.2,0c0.1-0.2,0.3-0.5,0.5-0.7c0,0-0.4,0.3-0.9,0.8
	c-0.1,0.1-0.2,0.1-0.3,0.2c-0.1-0.1-0.3-0.1-0.4-0.1c0,0,0.1,0.1,0.3,0.3c-0.2,0.2-0.4,0.4-0.5,0.7c-1.3-4.7-4.1-6.5-4.1-6.5
	c1.2,1.5,2,3.3,2.5,4.9c-0.1-0.1-0.2-0.1-0.3-0.2c0.3,0.5,0.4,1.2,0.5,1.9c-0.9-1.1-2-1.4-2-1.4c1,1,1.4,2,1.7,2.7
	c-0.5-0.5-1.2-1.1-1.9-1.3c0.4,0.3,0.9,0.9,1.3,1.6h-1.2v27.8h0.1v0.1h27.8V43.4h-0.1v-0.1h-1c0.1-0.2,0.2-0.3,0.3-0.5
	c0,0.1-0.1,0.3-0.1,0.5H68c0.1-0.4,0.2-1,0.4-1.5c0,0,0.1-0.1,0.1-0.1c0,0-0.1,0-0.1,0C68.7,41,69,40.2,69.6,39.6 M42.4,43.3
	L42.4,43.3C42.4,43.3,42.4,43.3,42.4,43.3L42.4,43.3C42.4,43.3,42.4,43.3,42.4,43.3 M62.8,41.6C62.8,41.6,62.8,41.6,62.8,41.6
	c0,0,0.1,0.1,0.1,0.2c0,0,0,0,0,0c0,0-0.1,0-0.1,0.1C62.7,41.8,62.7,41.7,62.8,41.6 M59.9,42C59.9,42,60,42,59.9,42
	C60,42.1,60,42.1,59.9,42C60,42.1,59.9,42,59.9,42C59.9,42,59.9,42,59.9,42 M59,41.9C59,41.9,59,42,59,41.9c0,0.1,0,0.1,0,0.1
	C59,42,59,42,59,41.9 M58.4,41.1c0,0.1,0.1,0.1,0.1,0.2c-0.1,0.2-0.3,0.4-0.4,0.6C58.3,41.7,58.3,41.4,58.4,41.1 M55.1,41.3
	c0.1,0.1,0.2,0.3,0.2,0.4c-0.1,0-0.2,0.1-0.4,0.1C55,41.7,55,41.5,55.1,41.3 M55.5,42.1C55.5,42.1,55.5,42.1,55.5,42.1
	c-0.2,0.5-0.3,0.9-0.3,1.2h-0.1c-0.1-0.2-0.2-0.5-0.2-0.7C55.1,42.4,55.3,42.2,55.5,42.1 M52.7,41.3c0,0.1-0.1,0.2-0.1,0.4
	C52.6,41.5,52.7,41.4,52.7,41.3 M48.7,41.7c0,0.4,0,0.8-0.1,1c0,0-0.1-0.1-0.1-0.1c0,0,0-0.1,0-0.1C48.5,42.2,48.6,42,48.7,41.7
	 M46.9,40.9c0,0,0,0.1,0,0.1c-0.1,0-0.1,0.1-0.2,0.1c0,0,0,0,0,0C46.8,41.1,46.9,41,46.9,40.9 M46.6,41.3
	C46.7,41.3,46.7,41.3,46.6,41.3C46.6,41.3,46.6,41.4,46.6,41.3C46.6,41.4,46.6,41.3,46.6,41.3 M47.3,50.4c1,0,1.7,0.8,1.7,1.7
	c0,1-0.8,1.7-1.7,1.7c-1,0-1.7-0.8-1.7-1.7C45.5,51.2,46.3,50.4,47.3,50.4 M44.9,42.1c0-0.2,0-0.5,0-0.7c0.1,0.1,0.2,0.2,0.3,0.4
	C45.1,41.9,45,42,44.9,42.1 M45.2,58.8l17.7,0C62.9,68.5,45.2,68.5,45.2,58.8 M61.2,53.8c-1,0-1.7-0.8-1.7-1.7c0-1,0.8-1.7,1.7-1.7
	c1,0,1.7,0.8,1.7,1.7C63,53,62.2,53.8,61.2,53.8 M63,43c0-0.2,0.1-0.3,0.2-0.5c0.1,0.3,0.2,0.5,0.2,0.7C63.3,43.1,63.2,43,63,43
	 M63.9,41.8C63.9,41.8,63.9,41.7,63.9,41.8c0-0.1-0.1-0.1-0.1-0.1c0,0-0.1,0-0.1-0.1c0.1-0.1,0.2-0.2,0.3-0.4
	c0.1,0.2,0.2,0.4,0.3,0.7c0,0.1,0,0.2,0,0.3C64.2,42,64,41.9,63.9,41.8 M66.3,43.3L66.3,43.3C66.3,43.3,66.3,43.3,66.3,43.3
	L66.3,43.3C66.3,43.3,66.3,43.3,66.3,43.3 M66.2,42c0-0.5,0.1-1,0.2-1.5C66.5,41.1,66.4,41.6,66.2,42"/>
<g>
	<path fill="#FFF200" d="M85.4,53.9c0-0.2,0-0.3,0-0.5c-0.1-1.6-0.3-3.1-0.6-4.7c0,0,0,0,0,0c-0.4-1.8-0.9-3.5-1.5-5.1
		c-0.1-0.2-0.1-0.4-0.2-0.5c-1.2-2.9-2.8-5.5-4.8-7.9c0,0,0,0,0,0c-0.3-0.4-0.6-0.7-1-1.1c0,0,0,0,0,0c-0.7-0.7-1.4-1.4-2.1-2.1
		c0,0,0,0,0,0c-1.8-1.6-3.7-3-5.8-4.1l0,0c-0.2-0.1-0.3-0.2-0.5-0.3c-1.1-0.6-2.3-1.1-3.6-1.6c0,0,0,0,0,0c-0.2-0.1-0.4-0.1-0.6-0.2
		c0,0,0,0,0,0h0c-3.1-1.1-6.5-1.7-10-1.7c-7.1,0-13.6,2.4-18.8,6.5c-0.1,0.1-0.3,0.2-0.4,0.3c-1,0.8-1.9,1.6-2.8,2.5c0,0,0,0,0,0
		c-1,1.1-2,2.2-2.9,3.4c0,0,0,0,0,0c-1.1,1.5-2.1,3.2-2.9,4.9h0c-0.1,0.2-0.2,0.3-0.2,0.5c-1.7,3.7-2.6,7.8-2.6,12.1
		c0,0.1,0,0.3,0,0.4c0,0.1,0,0.2,0,0.4c0,1.6,0.2,3.1,0.4,4.7c0,0.1,0,0.2,0.1,0.3c0.6,3.2,1.6,6.2,3.1,9c0,0,0,0.1,0,0.1
		c1,1.9,2.2,3.7,3.6,5.3c0,0,0,0,0,0c0,0,0,0,0,0c0.2,0.2,0.4,0.5,0.6,0.7c0,0,0,0,0,0c1.7,1.9,3.6,3.5,5.6,4.9l0,0c0,0,0,0,0,0
		c0.2,0.1,0.4,0.3,0.7,0.4c0.1,0.1,0.2,0.1,0.3,0.2c0.3,0.2,0.6,0.4,0.9,0.5c0,0,0,0,0,0c1.6,0.9,3.4,1.7,5.2,2.4
		c0.2,0.1,0.3,0.1,0.5,0.2c3,1,6.3,1.6,9.7,1.6c1.2,0,2.5-0.1,3.7-0.2c0.1,0,0.1,0,0.2,0c3-0.4,5.9-1.2,8.6-2.4l0,0c0,0,0.1,0,0.1,0
		c0.3-0.1,0.6-0.3,0.8-0.4c0.2-0.1,0.3-0.2,0.5-0.2c0,0,0,0,0.1,0c0,0,0.1,0,0.1-0.1c0.4-0.2,0.8-0.4,1.2-0.7c0,0,0,0,0,0
		c0.6-0.4,1.3-0.8,1.9-1.2c0.2-0.1,0.4-0.3,0.6-0.4c0,0,0,0,0,0c0.1-0.1,0.2-0.1,0.2-0.2c0,0,0,0,0,0c2.3-1.7,4.4-3.7,6.2-5.9
		c0.1-0.1,0.1-0.2,0.2-0.3c0.8-1,1.5-2.1,2.1-3.2c0.1-0.2,0.2-0.3,0.3-0.5c0.8-1.4,1.5-2.9,2-4.4c0.1-0.2,0.1-0.4,0.2-0.5
		c0.6-1.8,1.1-3.6,1.3-5.5c0-0.2,0-0.3,0.1-0.5c0.2-1.3,0.3-2.6,0.3-4C85.4,54.5,85.4,54.2,85.4,53.9z M63.3,26.5
		c-0.4,0.1-0.9,0.2-1.3,0.2c-1.2,0-2.3-0.4-3.2-1.2C60.3,25.7,61.9,26.1,63.3,26.5z M54.8,25.3c1,0,2.1,0.1,3.1,0.2l0.2,0.2
		c1,1,2.4,1.6,3.9,1.6c0.8,0,1.5-0.2,2.2-0.4c1.4,0.5,2.7,1,4,1.7L65.6,31c-0.9,0.9-2.2,1.5-3.6,1.5S59.4,32,58.5,31l-3.4-3.4
		c-1-1-2.4-1.6-3.9-1.6s-2.9,0.6-3.9,1.6l-3.5,3.5c-0.9,0.9-2.2,1.5-3.6,1.5c-1.3,0-2.4-0.5-3.3-1.3C41.8,27.6,48,25.3,54.8,25.3z
		 M54.8,84.4c-3,0-6-0.5-8.8-1.3l1.6-1.6c0.9-0.9,2.2-1.5,3.6-1.5s2.6,0.5,3.6,1.5l2.8,2.8C56.6,84.3,55.7,84.4,54.8,84.4z
		 M58.1,84.2l-3.1-3.1c-1-1-2.4-1.6-3.9-1.6s-2.9,0.6-3.9,1.6l-1.7,1.7c-1.4-0.5-2.7-1-4-1.7c1-0.2,1.8-0.7,2.6-1.4l3.5-3.5
		c0.9-0.9,2.2-1.5,3.6-1.5s2.6,0.5,3.6,1.5l3.4,3.4c1,1,2.4,1.6,3.9,1.6c1.5,0,2.9-0.6,3.9-1.6l3.3-3.3c1.8-1.8,4.5-1.9,6.4-0.5
		C71.1,80.3,64.9,83.4,58.1,84.2z M84.1,58.9c-1.5,0.2-3-0.3-4.1-1.4l-3.3-3.3c-1-1-2.4-1.6-3.9-1.6c-1.4,0-2.7,0.5-3.8,1.5v0.7
		l0.2-0.2c0.9-0.9,2.2-1.5,3.6-1.5s2.6,0.5,3.6,1.5l3.3,3.3c1.2,1.2,2.8,1.7,4.4,1.6c-0.3,1.8-0.7,3.5-1.3,5.2
		c-1-0.2-1.9-0.6-2.7-1.4L76.7,60c-2.1-2.1-5.5-2.2-7.7-0.1v0.7l0.2-0.2c2-2,5.1-2,7.1,0l3.3,3.3c0.8,0.8,1.8,1.3,2.9,1.5
		c-0.5,1.4-1.1,2.7-1.8,3.9c-0.2-0.2-0.5-0.3-0.7-0.6l-3.3-3.3c-2.1-2.1-5.5-2.2-7.7-0.1v0.7l0.2-0.2c2-2,5.1-2,7.1,0l3.3,3.3
		c0.2,0.2,0.5,0.5,0.8,0.6c-0.6,1-1.2,1.9-1.9,2.8l-1.8-1.8c-1-1-2.4-1.6-3.9-1.6c-1.4,0-2.7,0.5-3.8,1.5v0.7l0.2-0.2
		c2-2,5.1-2,7.1,0l1.9,1.9c-0.7,0.9-1.4,1.7-2.2,2.5c-0.9-0.7-2.1-1.1-3.3-1.1c-1.5,0-2.9,0.6-3.9,1.6l-3.3,3.3
		c-0.9,0.9-2.2,1.5-3.6,1.5s-2.6-0.5-3.6-1.5l-3.4-3.4c-1-1-2.4-1.6-3.9-1.6s-2.9,0.6-3.9,1.6l-3.5,3.5c-0.8,0.8-1.8,1.3-3,1.4
		c-5-2.7-9-6.8-11.8-11.7c1.3,0,2.5,0.6,3.4,1.5l3.9,3.9c1,1,2.4,1.6,3.9,1.6c1.5,0,2.9-0.6,3.9-1.6l2.5-2.5h-0.7l-2.1,2.1
		c-0.9,0.9-2.2,1.5-3.6,1.5s-2.6-0.5-3.6-1.5l-3.9-3.9c-1.1-1.1-2.6-1.6-4-1.6c-0.7-1.4-1.4-2.8-1.9-4.4c1.8-0.8,4-0.4,5.5,1.1
		l3.9,3.9c0.9,0.9,2.1,1.5,3.4,1.6v-0.5c-1.1-0.1-2.2-0.6-3-1.4l-3.9-3.9c-1.6-1.6-4.1-2-6.1-1.2c-0.4-1.3-0.7-2.7-1-4.1
		c2-1.6,4.8-1.4,6.7,0.4l3.9,3.9c0.9,0.9,2.1,1.5,3.4,1.6v-0.5c-1.1-0.1-2.2-0.6-3-1.4l-3.9-3.9c-1.9-1.9-5-2.1-7.1-0.6
		c-0.2-1.4-0.3-2.8-0.3-4.2c0-0.2,0-0.5,0-0.7c0.9-0.9,2.2-1.4,3.5-1.4c1.3,0,2.6,0.5,3.6,1.5l3.9,3.9c0.9,0.9,2.1,1.5,3.4,1.6v-0.5
		c-1.1-0.1-2.2-0.6-3-1.4l-3.9-3.9c-1-1-2.4-1.6-3.9-1.6c-1.3,0-2.5,0.4-3.5,1.2c0.1-1.8,0.3-3.5,0.7-5.2c0.8-0.5,1.8-0.8,2.8-0.8
		c1.3,0,2.6,0.5,3.6,1.5l3.9,3.9c0.9,0.9,2.1,1.5,3.4,1.6v-0.5c-1.1-0.1-2.2-0.6-3-1.4l-3.9-3.9c-1-1-2.4-1.6-3.9-1.6
		c-0.9,0-1.8,0.2-2.6,0.6c0.5-1.9,1.1-3.6,1.9-5.3c0.2,0,0.4,0,0.7,0c1.3,0,2.6,0.5,3.6,1.5l3.9,3.9c0.9,0.9,2.2,1.5,3.4,1.6v-0.5
		c-1.1-0.1-2.2-0.6-3-1.4l-3.9-3.9c-1-1-2.4-1.6-3.9-1.6c-0.1,0-0.2,0-0.4,0c0.8-1.5,1.6-2.9,2.6-4.3c0.5,0.2,0.9,0.5,1.3,0.9
		l3.9,3.9c0.9,0.9,2.1,1.5,3.4,1.6v-0.5c-1.1-0.1-2.2-0.6-3-1.4l-3.9-3.9c-0.4-0.4-0.9-0.7-1.4-1c0.7-0.9,1.5-1.8,2.3-2.6l2.6,2.6
		c1,1,2.2,1.5,3.4,1.6c0.3,0,0.5,0,0.8,0L40.2,38c-1.3,0-2.6-0.5-3.6-1.5L34,33.9c0.8-0.8,1.6-1.5,2.4-2.1c1,0.9,2.4,1.5,3.8,1.5
		c1.5,0,2.9-0.6,3.9-1.6l3.5-3.5c0.9-0.9,2.2-1.5,3.6-1.5s2.6,0.5,3.6,1.5l3.4,3.4c1,1,2.4,1.6,3.9,1.6c1.5,0,2.9-0.6,3.9-1.6
		l2.7-2.7c1.5,0.8,2.9,1.7,4.2,2.7c0,0-0.1,0-0.1,0c-1.5,0-2.9,0.6-3.9,1.6l-1.7,1.7l-0.9,0.9c-0.2,0.4-0.5,1-0.7,1.4
		c0.2-0.1,0.3-0.2,0.4-0.4l0.8-0.8l2.4-2.4c0.9-0.9,2.2-1.5,3.6-1.5c0.3,0,0.6,0,0.9,0.1c3.5,2.9,6.3,6.6,8.2,10.7
		c-0.7-0.2-1.3-0.6-1.8-1.2l-3.3-3.3c-1.1-1.1-2.5-1.6-3.8-1.6c-0.1,0-0.1,0-0.2,0c-1.4,0-2.8,0.6-3.8,1.6l-1.1,1.1l-0.3,0.5
		c0.1,0.1,0.1,0.2,0.1,0.4l1.6-1.6c0.7-0.7,1.5-1.1,2.4-1.3c0.3-0.1,0.5-0.1,0.8-0.1c1.4-0.1,2.8,0.4,3.9,1.5l3.3,3.3
		c0.7,0.7,1.6,1.2,2.5,1.4c0.7,1.6,1.2,3.2,1.6,4.9c-1.3,0-2.7-0.4-3.7-1.5l-3.3-3.3c-1-1-2.4-1.6-3.9-1.6c-1.4,0-2.7,0.5-3.8,1.5
		v0.7l0.2-0.2c0.9-0.9,2.2-1.5,3.6-1.5s2.6,0.5,3.6,1.5l3.3,3.3c1.1,1.1,2.7,1.7,4.2,1.6c0.3,1.5,0.5,3.1,0.6,4.7
		c-1.5,0.3-3.2-0.2-4.4-1.4l-3.3-3.3c-1-1-2.4-1.6-3.9-1.6c-1.4,0-2.7,0.5-3.8,1.5v0.7l0.2-0.2c0.9-0.9,2.2-1.5,3.6-1.5
		s2.6,0.5,3.6,1.5l3.3,3.3c1.3,1.3,3.1,1.8,4.8,1.6c0,0.2,0,0.4,0,0.7C84.4,56.2,84.3,57.6,84.1,58.9z"/>
	<path fill="#FFF200" d="M65.6,73.9c-0.9,0.9-2.2,1.5-3.6,1.5s-2.6-0.5-3.6-1.5L56.5,72h-0.7l2.3,2.3c1,1,2.4,1.6,3.9,1.6
		c1.5,0,2.9-0.6,3.9-1.6l2.3-2.3h-0.7L65.6,73.9z"/>
	<path fill="#FFF200" d="M63.1,37.7c-0.3,0.1-0.7,0.1-1,0.1c0,0-0.1,0-0.1,0c0,0,0,0-0.1,0c-0.2,0-0.3,0-0.5,0
		c-0.3,0-0.6-0.1-0.9-0.2c-0.8-0.2-1.5-0.7-2.1-1.3l-1.1-1.1L57,34.9l-1.7-1.7L55.1,33c-0.1-0.1-0.2-0.2-0.3-0.3
		c-2.2-1.9-5.5-1.8-7.6,0.3l-3.5,3.5c-0.3,0.3-0.6,0.5-0.9,0.7c0.1,0.1,0.2,0.3,0.3,0.5c0.4-0.2,0.7-0.5,1-0.8l3.5-3.5
		c2-2,5.1-2,7.1,0l0.3,0.3l1.1,1.1l0.4,0.4l0.4,0.4l0.6,0.6l0.5,0.5c0.6,0.6,1.2,1,1.9,1.2c0,0,0,0,0,0c0.3,0.1,0.7,0.2,1.1,0.3
		c0.3,0.1,0.6,0.1,0.9,0.1c0.1,0,0.1,0,0.2,0c0.2,0,0.4,0,0.6-0.1C62.9,38.1,63,37.9,63.1,37.7C63.2,37.7,63.1,37.7,63.1,37.7z"/>
</g>
</svg>
