<?xml version="1.0" encoding="utf-8"?>
<!-- Generator: Adobe Illustrator 18.1.0, SVG Export Plug-In . SVG Version: 6.00 Build 0)  -->
<!DOCTYPE svg PUBLIC "-//W3C//DTD SVG 1.1//EN" "http://www.w3.org/Graphics/SVG/1.1/DTD/svg11.dtd" [
	<!ENTITY ns_extend "http://ns.adobe.com/Extensibility/1.0/">
	<!ENTITY ns_ai "http://ns.adobe.com/AdobeIllustrator/10.0/">
	<!ENTITY ns_graphs "http://ns.adobe.com/Graphs/1.0/">
	<!ENTITY ns_vars "http://ns.adobe.com/Variables/1.0/">
	<!ENTITY ns_imrep "http://ns.adobe.com/ImageReplacement/1.0/">
	<!ENTITY ns_sfw "http://ns.adobe.com/SaveForWeb/1.0/">
	<!ENTITY ns_custom "http://ns.adobe.com/GenericCustomNamespace/1.0/">
	<!ENTITY ns_adobe_xpath "http://ns.adobe.com/XPath/1.0/">
]>
<svg version="1.1" id="Layer_1" xmlns:x="&ns_extend;" xmlns:i="&ns_ai;" xmlns:graph="&ns_graphs;"
	 xmlns="http://www.w3.org/2000/svg" xmlns:xlink="http://www.w3.org/1999/xlink" x="0px" y="0px" viewBox="0 0 130 130"
	 enable-background="new 0 0 130 130" xml:space="preserve">
<metadata>
	<sfw  xmlns="&ns_sfw;">
		<slices></slices>
		<sliceSourceBounds  width="270.6" height="128" bottomLeftOrigin="true" x="0" y="-118"></sliceSourceBounds>
	</sfw>
</metadata>
<circle fill="#333333" cx="65" cy="65" r="64"/>
<g>
	<path fill="#FFF200" d="M28,41.2L27.5,42l-0.7-0.5l1.6-2.3l0.7,0.5l-0.5,0.7l4.2,2.9l1.2-1.8l-1.9-1.3l0.5-0.8l2.6,1.8l-2.8,4.1
		l-0.7-0.5l0.5-0.7L28,41.2z"/>
	<path fill="#FFF200" d="M34.9,38l0.8,1.4l0.6-0.6l0.6,0.6l-1.8,2l-0.6-0.6l0.6-0.6l-2.5-4.9l-0.5,0.6l-0.6-0.5l2.4-2.5l0.6,0.5
		l-0.5,0.6l5.1,2.2l0.5-0.6l0.6,0.6l-1.8,1.9l-0.6-0.6l0.6-0.6l-1.5-0.7L34.9,38z M33.1,34.5L33.1,34.5l1.4,2.7l1.3-1.4L33.1,34.5z"
		/>
	<path fill="#FFF200" d="M46.3,29c0.5,1.5-0.1,2.9-1.5,3.8c-1.7,1.1-3.7,0.6-4.8-1.1c-1.2-1.8-0.8-3.7,0.9-4.8
		c0.7-0.5,1.5-0.7,2.3-0.6l-0.3-0.5l0.7-0.5l1.2,1.8l-0.7,0.5c-0.8-0.5-1.8-0.5-2.6,0c-1.1,0.7-1.4,2.2-0.5,3.4
		c0.8,1.2,2.3,1.6,3.4,0.9c0.8-0.5,1.3-1.6,0.9-2.9L46.3,29z"/>
	<path fill="#FFF200" d="M48.6,27.8l0.1,1.6l0.8-0.3l0.3,0.8l-2.5,1L47,30.1l0.8-0.3l-0.3-5.5l-0.7,0.3l-0.3-0.7l3.2-1.3l0.3,0.7
		l-0.7,0.3l3.7,4.1l0.7-0.3l0.3,0.8l-2.5,1l-0.3-0.8l0.8-0.3l-1.1-1.2L48.6,27.8z M48.4,23.9L48.4,23.9l0.2,3l1.8-0.8L48.4,23.9z"/>
	<path fill="#FFF200" d="M52.5,22.5l-0.8,0.2l-0.2-0.8l2.6-0.6l0.2,0.8l-0.8,0.2l2.8,4l0.6-4.8l-0.8,0.2l-0.2-0.8l2.5-0.6l0.2,0.8
		l-0.8,0.2l-0.8,6.4l-0.9,0.2L52.5,22.5z"/>
	<path fill="#FFF200" d="M61.3,24.4l-0.4,1.6l0.8-0.1l0.1,0.9l-2.7,0.2L59,26.1l0.8-0.1l1.5-5.3l-0.8,0.1L60.5,20l3.5-0.3l0.1,0.8
		l-0.8,0.1l2.2,5.1l0.8-0.1l0.1,0.9l-2.7,0.2l-0.1-0.9l0.8-0.1l-0.6-1.5L61.3,24.4z M62.3,20.6L62.3,20.6l-0.8,2.9l1.9-0.1
		L62.3,20.6z"/>
	<path fill="#FFF200" d="M69.4,20.6l0.1-0.8l3.2,0.5c2.6,0.4,3.1,2.3,2.9,3.9c-0.4,2.2-1.7,3.2-4.1,2.8l-3.1-0.5l0.1-0.8l0.9,0.2
		l0.8-5L69.4,20.6z M70.5,26l1.2,0.2c1.9,0.3,2.6-0.7,2.9-2.2c0.2-1.4-0.3-2.6-2-2.9l-1.2-0.2L70.5,26z"/>
	<path fill="#FFF200" d="M78.3,22.4l-0.8-0.3l0.3-0.8l5.3,1.9l-0.7,1.9l-0.8-0.3l0.4-1.1l-2.7-1l-0.7,1.9l2.4,0.8l-0.3,0.8l-2.4-0.8
		l-0.7,2.1l2.7,1l0.4-1.2l0.8,0.3l-0.7,2l-5.3-1.9l0.3-0.8l0.8,0.3L78.3,22.4z"/>
	<path fill="#FFF200" d="M82.3,31.5c0.2,0.2,0.4,0.3,0.6,0.4c0.4,0.2,0.8,0.1,1.1-0.4l3.1-5.5l-0.8-0.4l0.4-0.7l2.4,1.4l-0.4,0.7
		l-0.8-0.4l-3.2,5.6c-0.7,1.2-1.7,0.9-2.3,0.6c-0.2-0.1-0.5-0.3-0.6-0.5L82.3,31.5z"/>
	<path fill="#FFF200" d="M92.5,29.7L93,29l2.1,1.6l-0.5,0.7L94,30.8L91.6,34c-1,1.4-2.3,1-3.2,0.3c-1.6-1.2-1.4-2.3-0.7-3.2l2.3-3.1
		l-0.7-0.5l0.5-0.7l2.1,1.6L91.6,29l-0.6-0.5l-2.4,3.2c-0.6,0.8-0.3,1.4,0.3,1.9c0.8,0.6,1.4,0.5,2-0.3l2.3-3.1L92.5,29.7z"/>
	<path fill="#FFF200" d="M94.2,35.8l-1.5,0.7l0.6,0.6l-0.6,0.6l-1.9-1.9l0.6-0.6l0.6,0.6l5-2.3l-0.6-0.6l0.6-0.5l2.4,2.5l-0.6,0.5
		l-0.6-0.6l-2.5,4.9l0.5,0.6l-0.6,0.6L93.9,39l0.6-0.6l0.6,0.6l0.8-1.4L94.2,35.8z M97.7,34.2L97.7,34.2l-2.8,1.2l1.3,1.4L97.7,34.2
		z"/>
	<path fill="#FFF200" d="M101,38.2l-0.5-0.8l0.7-0.5l1.3,1.9l-2.8,5.4l0,0l3.7-2.5l-0.5-0.8l0.7-0.5l1.6,2.3l-0.7,0.5l-0.6-0.8
		l-5,3.4l-0.6-0.9l3-5.9l0,0l-4.1,2.7l0.5,0.8L97.1,43l-1.6-2.3l0.7-0.5l0.5,0.8L101,38.2z"/>
</g>
<g>
	<path fill="#FFF200" d="M106.1,83.1l0.3-0.7l0.8,0.4l-1.1,2.3l-0.8-0.4l0.3-0.7l-4.6-2.1l-0.3,0.7l-0.8-0.4L101,80l0.8,0.4
		l-0.3,0.7L106.1,83.1z"/>
	<path fill="#FFF200" d="M105,85.7l0.7,0.5l-1.7,2.7c-1.4,2.2-3.3,2-4.7,1.1c-1.9-1.2-2.3-2.8-1-4.9l1.7-2.6l0.7,0.5l-0.5,0.8
		l4.3,2.7L105,85.7z M99.6,84.6l-0.6,1c-1,1.6-0.3,2.7,0.9,3.5c1.2,0.8,2.5,0.7,3.4-0.7l0.7-1L99.6,84.6z"/>
	<path fill="#FFF200" d="M99.9,93.2l0.6-0.7l0.6,0.6l-3.8,4.2L95.8,96l0.6-0.6l0.9,0.8l1.9-2.2l-1.5-1.4L96,94.5l-0.6-0.6l1.7-1.9
		l-1.7-1.5l-1.9,2.2l0.9,0.8l-0.6,0.6l-1.6-1.4l3.8-4.2l0.6,0.6l-0.6,0.7L99.9,93.2z"/>
	<path fill="#FFF200" d="M91.9,96.2l-0.5-1.5l-0.7,0.5l-0.5-0.7l2.1-1.7l0.5,0.7L92.2,94l1.8,5.2l0.6-0.5l0.5,0.6l-2.7,2.2l-0.5-0.6
		l0.6-0.5l-4.7-2.9L87.2,98l-0.5-0.7l2.1-1.7l0.5,0.7l-0.7,0.5l1.4,0.9L91.9,96.2z M93.2,99.9L93.2,99.9l-1-2.9l-1.5,1.2L93.2,99.9z
		"/>
	<path fill="#FFF200" d="M87.9,99.4l-0.7,0.4l-0.3-0.5c-0.7-0.4-1.4-0.5-1.9-0.2c-0.6,0.3-0.8,1-0.5,1.6c0.7,1.2,2.3-0.3,3.7,0.1
		c0.4,0.1,0.7,0.4,1,0.8c0.6,1.1,0.1,2.1-0.8,2.6c-0.5,0.3-1,0.4-1.6,0.3l0.2,0.4l-0.7,0.4l-1-1.8l0.7-0.4l0.2,0.4
		c0.6,0.3,1.1,0.3,1.6,0c0.6-0.3,0.8-0.9,0.6-1.3c-0.1-0.2-0.3-0.3-0.5-0.4c-0.7-0.2-2.1,0.7-3.2,0.4c-0.5-0.1-1-0.5-1.2-1
		c-0.6-1-0.2-2.2,0.9-2.8c0.5-0.3,1.1-0.4,1.8-0.2l-0.3-0.5l0.7-0.4L87.9,99.4z"/>
	<path fill="#FFF200" d="M76.1,101.9c-0.7-0.1-1.4-0.1-1.8,0.2l0.1-0.9c0.9-0.5,2,0.2,2.9-0.1c0.3-0.1,0.5-0.2,0.6-0.4l0.4,0.3
		c-0.2,0.3-0.3,0.4-0.6,0.6l0,0c1.6,0,2.8,1.1,3.3,2.6c0.6,2-0.4,3.8-2.4,4.3c-2,0.6-3.8-0.4-4.4-2.3
		C73.5,104,74.8,102.4,76.1,101.9L76.1,101.9z M76.8,102.6c-1.3,0.4-2,1.8-1.6,3.2c0.4,1.4,1.8,2.2,3.1,1.8c1.3-0.4,2-1.7,1.5-3.2
		C79.4,103,78.1,102.2,76.8,102.6z"/>
	<path fill="#FFF200" d="M69.9,109.2L70,110l-2.7,0.3l-0.1-0.8l0.8-0.1l-0.4-3.9c-0.2-1.7,1-2.3,2.1-2.4c2-0.2,2.6,0.7,2.7,1.9
		l0.4,3.9l0.8-0.1l0.1,0.8l-2.7,0.3l-0.1-0.8l0.8-0.1l-0.4-3.9c-0.1-1-0.7-1.2-1.5-1.1c-1,0.1-1.4,0.6-1.3,1.5l0.4,3.8L69.9,109.2z"
		/>
	<path fill="#FFF200" d="M65.3,109.5l0.9,0l0,0.9l-5.6-0.3l0.1-2l0.8,0l-0.1,1.2l2.9,0.1l0.1-2l-2.5-0.1l0-0.9l2.5,0.1l0.1-2.2
		l-2.9-0.1l-0.1,1.2l-0.8,0l0.1-2.1l5.6,0.3l0,0.9l-0.9,0L65.3,109.5z"/>
	<path fill="#FFF200" d="M50.2,104c0.7-2.4,2.6-2.8,4.3-2.3c2.8,0.8,2.8,3.2,2.5,4.4c-0.5,1.5-1.9,3.1-4.3,2.4
		c-0.9-0.3-1.5-0.7-2-1.5l-0.2,0.7l-0.8-0.3l0.6-2.1l0.8,0.3c0.1,0.9,0.8,1.8,1.8,2c1.4,0.4,2.6-0.3,3.1-1.8
		c0.4-1.5-0.3-2.8-1.6-3.2c-1.1-0.3-2.1,0.1-2.6,0.9l1.2,0.4l-0.2,0.8L50.2,104z"/>
	<path fill="#FFF200" d="M44.6,104.2l-0.4,0.8l-2.4-1.2l0.4-0.8l0.8,0.4l1.8-3.5c0.8-1.6,2.1-1.3,3.1-0.8c1.7,0.9,1.7,2,1.2,3.1
		l-1.8,3.5l0.8,0.4l-0.4,0.8l-2.4-1.2l0.4-0.8l0.7,0.4l1.8-3.5c0.4-0.9,0.1-1.4-0.6-1.8c-0.9-0.5-1.5-0.3-1.9,0.6l-1.8,3.4
		L44.6,104.2z"/>
	<path fill="#FFF200" d="M43.4,99.5L42.7,99l0.4-0.5c0.1-0.8-0.1-1.5-0.6-1.8c-0.6-0.4-1.3-0.3-1.6,0.2c-0.8,1.1,1.2,2,1.5,3.5
		c0.1,0.4,0,0.8-0.4,1.3c-0.7,1-1.9,0.9-2.7,0.3c-0.4-0.3-0.8-0.8-0.9-1.3L38,101l-0.7-0.5l1.2-1.7l0.7,0.5l-0.3,0.4
		c0,0.7,0.2,1.1,0.7,1.5c0.6,0.4,1.1,0.4,1.4,0c0.1-0.2,0.2-0.4,0.2-0.6c-0.1-0.7-1.5-1.6-1.7-2.7c-0.1-0.5,0.1-1.1,0.4-1.5
		c0.7-0.9,1.9-1.1,2.9-0.4c0.5,0.4,0.8,0.9,1,1.5l0.3-0.5l0.7,0.5L43.4,99.5z"/>
	<path fill="#FFF200" d="M34,93.8l0.6,0.6l-1.2,1.3l1,1l3.5-3.7l-0.6-0.6l0.6-0.6l2,1.9l-0.6,0.6l-0.6-0.6l-3.5,3.7l1,1l1.2-1.3
		l0.6,0.6l-1.8,1.9l-4-3.8L34,93.8z"/>
	<path fill="#FFF200" d="M33.8,90.7l1.6-0.5l-0.5-0.7l0.7-0.5l1.6,2.1l-0.7,0.5L36,91l-5.3,1.7l0.5,0.6l-0.6,0.5L28.5,91l0.6-0.5
		l0.5,0.6l3-4.6L32.1,86l0.7-0.5l1.6,2.1l-0.7,0.5l-0.5-0.7l-0.9,1.3L33.8,90.7z M30.1,91.9L30.1,91.9L33,91l-1.2-1.5L30.1,91.9z"/>
	<path fill="#FFF200" d="M27.2,87.6l0.4,0.9l-0.8,0.4l-1.1-2.1l3.4-5.1l0,0l-4,2l0.4,0.8L24.9,85l-1.3-2.5l0.8-0.4l0.5,0.9l5.4-2.8
		l0.5,1L27,86.8l0,0l4.4-2.2l-0.5-0.9l0.8-0.4l1.3,2.5l-0.8,0.4l-0.4-0.9L27.2,87.6z"/>
</g>
<path fill="#FFF200" d="M65,12.7c14,0,27.1,5.4,37,15.3s15.3,23,15.3,37s-5.4,27.1-15.3,37c-9.9,9.9-23,15.3-37,15.3
	s-27.1-5.4-37-15.3c-9.9-9.9-15.3-23-15.3-37S18.1,37.9,28,28C37.9,18.1,51,12.7,65,12.7 M65,11.2c-29.7,0-53.8,24.1-53.8,53.8
	s24.1,53.8,53.8,53.8s53.8-24.1,53.8-53.8S94.7,11.2,65,11.2L65,11.2z"/>
<path fill="#FFF200" d="M24.5,54.1c-3.6,0-6.5,2.9-6.5,6.5c0,3.6,2.9,6.5,6.5,6.5c3.6,0,6.5-2.9,6.5-6.5S28.1,54.1,24.5,54.1z
	 M26.2,66l-1.5-1v-1.9l1.9-1.1l1.7,1l0.1,1.7C27.7,65.3,27,65.8,26.2,66z M20.6,64.8l0.1-1.7l1.7-1l1.9,1.1v1.9l-1.5,1
	C22,65.8,21.3,65.3,20.6,64.8z M18.8,60.6c0-0.4,0-0.8,0.1-1.2l1.6-0.8l1.7,1v2.1l-1.7,1L19,61.8C18.9,61.4,18.8,61,18.8,60.6z
	 M22.8,55.2l1.5,1v1.9l-1.9,1.1l-1.7-1l-0.1-1.7C21.3,55.9,22,55.4,22.8,55.2z M28.4,56.4l-0.1,1.7l-1.7,1l-1.9-1.1v-1.9l1.5-1
	C27,55.4,27.7,55.9,28.4,56.4z M24.5,62.7l-1.9-1.1v-2.1l1.9-1.1l1.9,1.1v2.1L24.5,62.7z M28.5,62.6l-1.7-1v-2.1l1.7-1l1.6,0.8
	c0.1,0.4,0.1,0.8,0.1,1.2c0,0.4,0,0.8-0.1,1.2L28.5,62.6z M29.9,58.8l-1.2-0.6l0.1-1.3C29.3,57.4,29.6,58.1,29.9,58.8z M25.6,55
	l-1.1,0.7L23.4,55c0.4-0.1,0.7-0.1,1.1-0.1C24.9,54.9,25.2,55,25.6,55z M20.2,56.9l0.1,1.3l-1.2,0.6C19.4,58.1,19.7,57.4,20.2,56.9z
	 M19.1,62.4l1.2,0.6l-0.1,1.3C19.7,63.8,19.4,63.1,19.1,62.4z M23.4,66.2l1.1-0.7l1.1,0.7c-0.4,0.1-0.7,0.1-1.1,0.1
	C24.1,66.3,23.8,66.2,23.4,66.2z M28.8,64.3L28.7,63l1.2-0.6C29.6,63.1,29.3,63.8,28.8,64.3z"/>
<path fill="#FFF200" d="M106.3,54.1c-3.6,0-6.5,2.9-6.5,6.5c0,3.6,2.9,6.5,6.5,6.5c3.6,0,6.5-2.9,6.5-6.5S109.9,54.1,106.3,54.1z
	 M108,66l-1.5-1v-1.9l1.9-1.1l1.7,1l0.1,1.7C109.6,65.3,108.8,65.8,108,66z M102.5,64.8l0.1-1.7l1.7-1l1.9,1.1v1.9l-1.5,1
	C103.8,65.8,103.1,65.3,102.5,64.8z M100.6,60.6c0-0.4,0-0.8,0.1-1.2l1.6-0.8l1.7,1v2.1l-1.7,1l-1.6-0.8
	C100.7,61.4,100.6,61,100.6,60.6z M104.6,55.2l1.5,1v1.9l-1.9,1.1l-1.7-1l-0.1-1.7C103.1,55.9,103.8,55.4,104.6,55.2z M110.2,56.4
	l-0.1,1.7l-1.7,1l-1.9-1.1v-1.9l1.5-1C108.8,55.4,109.6,55.9,110.2,56.4z M106.3,62.7l-1.9-1.1v-2.1l1.9-1.1l1.9,1.1v2.1L106.3,62.7
	z M110.3,62.6l-1.7-1v-2.1l1.7-1l1.6,0.8c0.1,0.4,0.1,0.8,0.1,1.2c0,0.4,0,0.8-0.1,1.2L110.3,62.6z M111.7,58.8l-1.2-0.6l0.1-1.3
	C111.1,57.4,111.5,58.1,111.7,58.8z M107.4,55l-1.1,0.7l-1.1-0.7c0.4-0.1,0.7-0.1,1.1-0.1C106.7,54.9,107.1,55,107.4,55z M102,56.9
	l0.1,1.3l-1.2,0.6C101.2,58.1,101.6,57.4,102,56.9z M100.9,62.4l1.2,0.6l-0.1,1.3C101.6,63.8,101.2,63.1,100.9,62.4z M105.2,66.2
	l1.1-0.7l1.1,0.7c-0.4,0.1-0.7,0.1-1.1,0.1S105.6,66.2,105.2,66.2z M110.6,64.3l-0.1-1.3l1.2-0.6C111.5,63.1,111.1,63.8,110.6,64.3z
	"/>
<path fill="none" d="M47.1,89.8c0.2,0.2,0.5,0.4,0.7,0.5C47.5,90.2,47.3,90,47.1,89.8z"/>
<g>
	<path fill="#FFF200" d="M53.4,36.7c-0.6,0.2-1.2,0.5-1.7,0.8C52.3,37.3,52.9,37,53.4,36.7L53.4,36.7z"/>
</g>
<path fill="none" d="M58.6,48.6C58.6,48.6,58.6,48.6,58.6,48.6l-0.2-0.3c0,0-0.1,0.1-0.1,0.1L58.6,48.6z"/>
<polygon fill="none" points="66.7,45.3 66.3,44.9 66.6,45.4 "/>
<polygon fill="none" points="70.2,48.1 70.2,48.1 70.2,48.1 "/>
<g>
	<path fill="#FFF200" d="M50.9,48.1c-0.2,0-0.3,0-0.5,0l0.6,0.3C51,48.4,50.9,48.3,50.9,48.1L50.9,48.1z"/>
</g>
<path fill="#A7CC39" d="M50.4,48.1L50.4,48.1C50.4,48.2,50.4,48.2,50.4,48.1L50.4,48.1z"/>
<path fill="#FFF200" d="M79.7,49.7c0,0-1.1,0.7-1.8,2.4c-0.3,0.2-0.5,0.4-0.8,0.6c0.3-1.4-0.1-2.1-0.4-2.5c0-0.1,0.1-0.2,0.2-0.3
	c-0.1,0.1-0.2,0.1-0.3,0.2c-0.1-0.1-0.2-0.1-0.2-0.1c0,0.1,0,0.1,0.1,0.2c-0.4,0.2-0.7,0.5-0.9,0.8c0.4-2.1,1.7-3.2,1.7-3.2
	c-1.4,0.7-2.1,2.1-2.4,3.3c-0.3-0.4-0.6-0.7-1.1-1c0,0,0.2,0.4,0.3,1c-0.2-0.1-0.3-0.2-0.5-0.2c0.1,0.1,0.2,0.2,0.3,0.4
	c-0.2,0.1-0.4,0.2-0.5,0.4c-0.1,0-0.2-0.1-0.3-0.1c0.1-0.3,0.3-0.5,0.4-0.7c-0.1,0-0.2,0-0.3,0.1c0.4-1.2,0.9-2.6,1.8-3.6
	c0,0-2.2,1.4-3,5c-0.1,0.1-0.1,0.2-0.2,0.4c0-0.2,0-0.4-0.1-0.6c0.1,0,0.1-0.1,0.2-0.1c-0.1,0-0.1,0-0.2-0.1
	c-0.2-1.1-0.8-2.3-2.1-3.2c0,0,0.6,1.2,0.6,2.8c-0.1,0.1-0.3,0.2-0.4,0.3c0,0-0.1,0-0.1,0c-0.1-0.1-0.1-0.1-0.2-0.2
	c0.2-0.3,0.3-0.6,0.5-0.8c-0.3,0-0.6,0.2-0.9,0.5C69,51.1,68.9,51,68.8,51c0.4-0.9,0.9-1.6,0.9-1.6c-0.1,0.1-0.3,0.2-0.4,0.2
	c0,0,0,0,0-0.1c-0.5,0.3-0.9,0.7-1.2,1.1c-0.1,0-0.1,0-0.2-0.1c0,0,0.1,0.1,0.1,0.1c-0.1,0.2-0.2,0.3-0.3,0.5
	c-0.2,0.3-0.3,0.6-0.4,0.9c0-0.1-0.1-0.2-0.1-0.3c0.1-0.4,0.1-0.7,0.1-1.1c0,0,0.1-0.1,0.1-0.1c0,0-0.1,0-0.1,0
	c0-2.2-0.8-3.7-0.8-3.7c0.3,1.3,0.2,2.6,0,3.6c-0.3-0.4-0.7-0.7-1.1-1c0.3,0.4,0.7,1.1,0.9,1.9c-0.2-0.2-0.4-0.4-0.6-0.5
	c0.1-0.1,0.1-0.2,0.2-0.3c-0.1,0-0.3,0.1-0.4,0.1c-0.7-0.5-1.3-0.6-1.3-0.6c0.3,0.3,0.6,0.6,0.8,0.9c-0.6,0.4-1,1.1-1.1,1.8
	c-0.1,0.1-0.2,0.2-0.3,0.4c0.1-0.3,0.1-0.5,0.1-0.7c0.2-0.7,0.6-1.4,0.9-1.8c-0.3,0-0.6,0.2-0.9,0.5c-0.2-1.4-1-1.7-1-1.7
	c0.2,0.4,0.2,0.9,0.2,1.3c-0.4,0.2-0.8,0.5-1,0.9c-0.4-2.2,1.3-3.6,1.3-3.6c-1.1,0.6-1.7,1.4-2,2.1c-0.1-0.1-0.3-0.2-0.4-0.3
	c0.2,0.2,0.3,0.5,0.3,0.8c-0.1,0.3-0.1,0.6-0.1,0.9c-0.1,0.3-0.2,0.7-0.4,1c0-0.1,0-0.2-0.1-0.2c0-0.1-0.1-0.3-0.1-0.4
	c0-0.1,0-0.1,0-0.2c0.2-0.2,0.3-0.5,0.6-0.7c0,0-0.3,0.1-0.6,0.3c0-0.5,0-1,0.1-1.5c0,0-0.3,0.3-0.6,0.8c-0.1-0.2-0.3-0.3-0.4-0.5
	c0.4-1,0.9-2,1.6-2.8c0,0-1.1,0.7-2,2.4c-0.2-0.1-0.4-0.3-0.6-0.4c0.1,0.3,0.3,0.6,0.3,0.9c-0.1,0.3-0.3,0.6-0.4,0.9
	c0-0.1-0.1-0.1-0.1-0.2c0,0,0.1-0.1,0.1-0.1c-0.1,0-0.1,0-0.2,0c-0.1-0.2-0.2-0.3-0.3-0.5c0.3-0.3,0.6-0.5,0.6-0.5
	c-0.3,0.1-0.5,0.2-0.7,0.3c-0.3-0.3-0.6-0.7-1-1c0,0,0.2,0.5,0.4,1.3c-0.3,0.2-0.5,0.4-0.7,0.6c-0.2,0.1-0.3,0.3-0.5,0.5
	c0,0,0,0,0,0c-0.2-0.2-0.4-0.3-0.6-0.4c0.1-0.3,0.2-0.5,0.3-0.6c-0.1,0-0.1,0-0.2,0c0.1-0.2,0.3-0.5,0.5-0.7c0,0-0.4,0.3-0.9,0.8
	c-0.1,0.1-0.2,0.1-0.3,0.2c-0.1-0.1-0.3-0.1-0.4-0.1c0,0,0.1,0.1,0.3,0.3c-0.2,0.2-0.4,0.4-0.5,0.7c-1.3-4.7-4.1-6.5-4.1-6.5
	c1.2,1.5,2,3.3,2.5,4.9c-0.1-0.1-0.2-0.1-0.3-0.2c0.3,0.5,0.4,1.2,0.5,1.9c-0.9-1.1-2-1.4-2-1.4c1,1,1.4,2,1.7,2.7
	c-0.5-0.5-1.2-1.1-1.9-1.3c0.4,0.3,0.9,0.9,1.3,1.6h-1.2v27.8h0.1v0.1h27.8V53.6h-0.1v-0.1h-1c0.1-0.2,0.2-0.3,0.3-0.5
	c0,0.1-0.1,0.3-0.1,0.5h0.6c0.1-0.4,0.2-1,0.4-1.5c0,0,0.1-0.1,0.1-0.1c0,0-0.1,0-0.1,0C78.9,51.1,79.2,50.4,79.7,49.7 M52.6,53.5
	L52.6,53.5C52.6,53.5,52.6,53.5,52.6,53.5L52.6,53.5C52.6,53.5,52.6,53.5,52.6,53.5 M73,51.8C73,51.8,73,51.8,73,51.8
	c0,0,0.1,0.1,0.1,0.2c0,0,0,0,0,0c0,0-0.1,0-0.1,0.1C72.9,52,72.9,51.9,73,51.8 M70.1,52.2C70.1,52.2,70.1,52.2,70.1,52.2
	C70.1,52.2,70.1,52.3,70.1,52.2C70.1,52.2,70.1,52.2,70.1,52.2C70.1,52.2,70.1,52.2,70.1,52.2 M69.2,52.1
	C69.2,52.1,69.2,52.1,69.2,52.1c0,0.1,0,0.1,0,0.1C69.1,52.2,69.2,52.1,69.2,52.1 M68.6,51.3c0,0.1,0.1,0.1,0.1,0.2
	c-0.1,0.2-0.3,0.4-0.4,0.6C68.4,51.9,68.5,51.6,68.6,51.3 M65.3,51.5c0.1,0.1,0.2,0.3,0.2,0.4c-0.1,0-0.2,0.1-0.4,0.1
	C65.2,51.9,65.2,51.7,65.3,51.5 M65.7,52.3C65.7,52.3,65.7,52.3,65.7,52.3c-0.2,0.5-0.3,0.9-0.3,1.2h-0.1c-0.1-0.2-0.2-0.5-0.2-0.7
	C65.3,52.6,65.5,52.4,65.7,52.3 M62.9,51.5c0,0.1-0.1,0.2-0.1,0.4C62.8,51.7,62.9,51.6,62.9,51.5 M58.8,51.9c0,0.4,0,0.8-0.1,1
	c0,0-0.1-0.1-0.1-0.1c0,0,0-0.1,0-0.1C58.7,52.4,58.8,52.1,58.8,51.9 M57.1,51.1c0,0,0,0.1,0,0.1c-0.1,0-0.1,0.1-0.2,0.1
	c0,0,0,0,0,0C57,51.3,57,51.2,57.1,51.1 M56.8,51.5C56.8,51.5,56.8,51.5,56.8,51.5C56.8,51.5,56.8,51.6,56.8,51.5
	C56.8,51.6,56.8,51.5,56.8,51.5 M57.4,60.6c1,0,1.7,0.8,1.7,1.7c0,1-0.8,1.7-1.7,1.7c-1,0-1.7-0.8-1.7-1.7
	C55.7,61.3,56.5,60.6,57.4,60.6 M55.1,52.3c0-0.2,0-0.5,0-0.7c0.1,0.1,0.2,0.2,0.3,0.4C55.3,52,55.2,52.2,55.1,52.3 M55.4,69l17.7,0
	C73.1,78.7,55.4,78.7,55.4,69 M71.4,64c-1,0-1.7-0.8-1.7-1.7c0-1,0.8-1.7,1.7-1.7c1,0,1.7,0.8,1.7,1.7C73.2,63.2,72.4,64,71.4,64
	 M73.2,53.2c0-0.2,0.1-0.3,0.2-0.5c0.1,0.3,0.2,0.5,0.2,0.7C73.5,53.3,73.3,53.2,73.2,53.2 M74,52C74.1,51.9,74.1,51.9,74,52
	c0-0.1-0.1-0.1-0.1-0.1c0,0-0.1,0-0.1-0.1c0.1-0.1,0.2-0.2,0.3-0.4c0.1,0.2,0.2,0.4,0.3,0.7c0,0.1,0,0.2,0,0.3
	C74.3,52.2,74.2,52.1,74,52 M76.5,53.5L76.5,53.5C76.5,53.5,76.5,53.5,76.5,53.5L76.5,53.5C76.5,53.5,76.5,53.5,76.5,53.5
	 M76.4,52.2c0-0.5,0.1-1,0.2-1.5C76.7,51.3,76.6,51.8,76.4,52.2"/>
<g>
	<path fill="#FFF200" d="M95.6,64.1c0-0.2,0-0.3,0-0.5c-0.1-1.6-0.3-3.1-0.6-4.7c0,0,0,0,0,0c-0.4-1.8-0.9-3.5-1.5-5.1
		c-0.1-0.2-0.1-0.4-0.2-0.5c-1.2-2.9-2.8-5.5-4.8-7.9c0,0,0,0,0,0c-0.3-0.4-0.6-0.7-1-1.1c0,0,0,0,0,0c-0.7-0.7-1.4-1.4-2.1-2.1
		c0,0,0,0,0,0c-1.8-1.6-3.7-3-5.8-4.1l0,0c-0.2-0.1-0.3-0.2-0.5-0.3c-1.1-0.6-2.3-1.1-3.6-1.6c0,0,0,0,0,0c-0.2-0.1-0.4-0.1-0.6-0.2
		c0,0,0,0,0,0h0c-3.1-1.1-6.5-1.7-10-1.7c-7.1,0-13.6,2.4-18.8,6.5c-0.1,0.1-0.3,0.2-0.4,0.3c-1,0.8-1.9,1.6-2.8,2.5c0,0,0,0,0,0
		c-1,1.1-2,2.2-2.9,3.4c0,0,0,0,0,0c-1.1,1.5-2.1,3.2-2.9,4.9h0c-0.1,0.2-0.2,0.3-0.2,0.5c-1.7,3.7-2.6,7.8-2.6,12.1
		c0,0.1,0,0.3,0,0.4c0,0.1,0,0.2,0,0.4c0,1.6,0.2,3.1,0.4,4.7c0,0.1,0,0.2,0.1,0.3c0.6,3.2,1.6,6.2,3.1,9c0,0,0,0.1,0,0.1
		c1,1.9,2.2,3.7,3.6,5.3c0,0,0,0,0,0c0,0,0,0,0,0c0.2,0.2,0.4,0.5,0.6,0.7c0,0,0,0,0,0c1.7,1.9,3.6,3.5,5.6,4.9l0,0c0,0,0,0,0,0
		c0.2,0.1,0.4,0.3,0.7,0.4c0.1,0.1,0.2,0.1,0.3,0.2c0.3,0.2,0.6,0.4,0.9,0.5c0,0,0,0,0,0c1.6,0.9,3.4,1.7,5.2,2.4
		c0.2,0.1,0.3,0.1,0.5,0.2c3,1,6.3,1.6,9.7,1.6c1.2,0,2.5-0.1,3.7-0.2c0.1,0,0.1,0,0.2,0c3-0.4,5.9-1.2,8.6-2.4l0,0c0,0,0.1,0,0.1,0
		c0.3-0.1,0.6-0.3,0.8-0.4c0.2-0.1,0.3-0.2,0.5-0.2c0,0,0,0,0.1,0c0,0,0.1,0,0.1-0.1c0.4-0.2,0.8-0.4,1.2-0.7c0,0,0,0,0,0
		c0.6-0.4,1.3-0.8,1.9-1.2c0.2-0.1,0.4-0.3,0.6-0.4c0,0,0,0,0,0c0.1-0.1,0.2-0.1,0.2-0.2c0,0,0,0,0,0c2.3-1.7,4.4-3.7,6.2-5.9
		c0.1-0.1,0.1-0.2,0.2-0.3c0.8-1,1.5-2.1,2.1-3.2c0.1-0.2,0.2-0.3,0.3-0.5c0.8-1.4,1.5-2.9,2-4.4c0.1-0.2,0.1-0.4,0.2-0.5
		c0.6-1.8,1.1-3.6,1.3-5.5c0-0.2,0-0.3,0.1-0.5c0.2-1.3,0.3-2.6,0.3-4C95.6,64.7,95.6,64.4,95.6,64.1z M73.5,36.7
		c-0.4,0.1-0.9,0.2-1.3,0.2c-1.2,0-2.3-0.4-3.2-1.2C70.5,35.9,72,36.3,73.5,36.7z M65,35.5c1,0,2.1,0.1,3.1,0.2l0.2,0.2
		c1,1,2.4,1.6,3.9,1.6c0.8,0,1.5-0.2,2.2-0.4c1.4,0.5,2.7,1,4,1.7l-2.6,2.6c-0.9,0.9-2.2,1.5-3.6,1.5s-2.6-0.5-3.6-1.5l-3.4-3.4
		c-1-1-2.4-1.6-3.9-1.6s-2.9,0.6-3.9,1.6l-3.5,3.5c-0.9,0.9-2.2,1.5-3.6,1.5c-1.3,0-2.4-0.5-3.3-1.3C52,37.7,58.2,35.5,65,35.5z
		 M65,94.5c-3,0-6-0.5-8.8-1.3l1.6-1.6c0.9-0.9,2.2-1.5,3.6-1.5s2.6,0.5,3.6,1.5l2.8,2.8C66.8,94.5,65.9,94.5,65,94.5z M68.3,94.4
		l-3.1-3.1c-1-1-2.4-1.6-3.9-1.6s-2.9,0.6-3.9,1.6L55.7,93c-1.4-0.5-2.7-1-4-1.7c1-0.2,1.8-0.7,2.6-1.4l3.5-3.5
		c0.9-0.9,2.2-1.5,3.6-1.5s2.6,0.5,3.6,1.5l3.4,3.4c1,1,2.4,1.6,3.9,1.6c1.5,0,2.9-0.6,3.9-1.6l3.3-3.3c1.8-1.8,4.5-1.9,6.4-0.5
		C81.2,90.5,75.1,93.6,68.3,94.4z M94.3,69.1c-1.5,0.2-3-0.3-4.1-1.4l-3.3-3.3c-1-1-2.4-1.6-3.9-1.6c-1.4,0-2.7,0.5-3.8,1.5V65
		l0.2-0.2c0.9-0.9,2.2-1.5,3.6-1.5s2.6,0.5,3.6,1.5l3.3,3.3c1.2,1.2,2.8,1.7,4.4,1.6c-0.3,1.8-0.7,3.5-1.3,5.2
		c-1-0.2-1.9-0.6-2.7-1.4l-3.3-3.3c-2.1-2.1-5.5-2.2-7.7-0.1v0.7l0.2-0.2c2-2,5.1-2,7.1,0l3.3,3.3c0.8,0.8,1.8,1.3,2.9,1.5
		c-0.5,1.4-1.1,2.7-1.8,3.9c-0.2-0.2-0.5-0.3-0.7-0.6l-3.3-3.3c-2.1-2.1-5.5-2.2-7.7-0.1v0.7l0.2-0.2c2-2,5.1-2,7.1,0l3.3,3.3
		c0.2,0.2,0.5,0.5,0.8,0.6c-0.6,1-1.2,1.9-1.9,2.8l-1.8-1.8c-1-1-2.4-1.6-3.9-1.6c-1.4,0-2.7,0.5-3.8,1.5v0.7l0.2-0.2
		c2-2,5.1-2,7.1,0l1.9,1.9c-0.7,0.9-1.4,1.7-2.2,2.5c-0.9-0.7-2.1-1.1-3.3-1.1c-1.5,0-2.9,0.6-3.9,1.6l-3.3,3.3
		c-0.9,0.9-2.2,1.5-3.6,1.5s-2.6-0.5-3.6-1.5L65.3,86c-1-1-2.4-1.6-3.9-1.6S58.5,85,57.4,86l-3.5,3.5c-0.8,0.8-1.8,1.3-3,1.4
		c-5-2.7-9-6.8-11.8-11.7c1.3,0,2.5,0.6,3.4,1.5l3.9,3.9c1,1,2.4,1.6,3.9,1.6c1.5,0,2.9-0.6,3.9-1.6l2.5-2.5H56l-2.1,2.1
		c-0.9,0.9-2.2,1.5-3.6,1.5s-2.6-0.5-3.6-1.5l-3.9-3.9c-1.1-1.1-2.6-1.6-4-1.6c-0.7-1.4-1.4-2.8-1.9-4.4c1.8-0.8,4-0.4,5.5,1.1
		l3.9,3.9c0.9,0.9,2.1,1.5,3.4,1.6v-0.5c-1.1-0.1-2.2-0.6-3-1.4l-3.9-3.9c-1.6-1.6-4.1-2-6.1-1.2c-0.4-1.3-0.7-2.7-1-4.1
		c2-1.6,4.8-1.4,6.7,0.4l3.9,3.9c0.9,0.9,2.1,1.5,3.4,1.6v-0.5c-1.1-0.1-2.2-0.6-3-1.4l-3.9-3.9c-1.9-1.9-5-2.1-7.1-0.6
		c-0.2-1.4-0.3-2.8-0.3-4.2c0-0.2,0-0.5,0-0.7c0.9-0.9,2.2-1.4,3.5-1.4c1.3,0,2.6,0.5,3.6,1.5l3.9,3.9c0.9,0.9,2.1,1.5,3.4,1.6v-0.5
		c-1.1-0.1-2.2-0.6-3-1.4L42.9,64c-1-1-2.4-1.6-3.9-1.6c-1.3,0-2.5,0.4-3.5,1.2c0.1-1.8,0.3-3.5,0.7-5.2c0.8-0.5,1.8-0.8,2.8-0.8
		c1.3,0,2.6,0.5,3.6,1.5l3.9,3.9c0.9,0.9,2.1,1.5,3.4,1.6V64c-1.1-0.1-2.2-0.6-3-1.4l-3.9-3.9c-1-1-2.4-1.6-3.9-1.6
		c-0.9,0-1.8,0.2-2.6,0.6c0.5-1.9,1.1-3.6,1.9-5.3c0.2,0,0.4,0,0.7,0c1.3,0,2.6,0.5,3.6,1.5l3.9,3.9c0.9,0.9,2.2,1.5,3.4,1.6v-0.5
		c-1.1-0.1-2.2-0.6-3-1.4l-3.9-3.9c-1-1-2.4-1.6-3.9-1.6c-0.1,0-0.2,0-0.4,0c0.8-1.5,1.6-2.9,2.6-4.3c0.5,0.2,0.9,0.5,1.3,0.9
		l3.9,3.9c0.9,0.9,2.1,1.5,3.4,1.6v-0.5c-1.1-0.1-2.2-0.6-3-1.4l-3.9-3.9c-0.4-0.4-0.9-0.7-1.4-1c0.7-0.9,1.5-1.8,2.3-2.6l2.6,2.6
		c1,1,2.2,1.5,3.4,1.6c0.3,0,0.5,0,0.8,0l-0.3-0.5c-1.3,0-2.6-0.5-3.6-1.5l-2.6-2.6c0.8-0.8,1.6-1.5,2.4-2.1c1,0.9,2.4,1.5,3.8,1.5
		c1.5,0,2.9-0.6,3.9-1.6l3.5-3.5c0.9-0.9,2.2-1.5,3.6-1.5s2.6,0.5,3.6,1.5l3.4,3.4c1,1,2.4,1.6,3.9,1.6c1.5,0,2.9-0.6,3.9-1.6
		l2.7-2.7c1.5,0.8,2.9,1.7,4.2,2.7c0,0-0.1,0-0.1,0c-1.5,0-2.9,0.6-3.9,1.6l-1.7,1.7l-0.9,0.9c-0.2,0.4-0.5,1-0.7,1.4
		c0.2-0.1,0.3-0.2,0.4-0.4l0.8-0.8l2.4-2.4c0.9-0.9,2.2-1.5,3.6-1.5c0.3,0,0.6,0,0.9,0.1c3.5,2.9,6.3,6.6,8.2,10.7
		c-0.7-0.2-1.3-0.6-1.8-1.2l-3.3-3.3c-1.1-1.1-2.5-1.6-3.8-1.6c-0.1,0-0.1,0-0.2,0c-1.4,0-2.8,0.6-3.8,1.6L78,49.6l-0.3,0.5
		c0.1,0.1,0.1,0.2,0.1,0.4l1.6-1.6c0.7-0.7,1.5-1.1,2.4-1.3c0.3-0.1,0.5-0.1,0.8-0.1c1.4-0.1,2.8,0.4,3.9,1.5l3.3,3.3
		c0.7,0.7,1.6,1.2,2.5,1.4c0.7,1.6,1.2,3.2,1.6,4.9c-1.3,0-2.7-0.4-3.7-1.5l-3.3-3.3c-1-1-2.4-1.6-3.9-1.6c-1.4,0-2.7,0.5-3.8,1.5
		v0.7l0.2-0.2c0.9-0.9,2.2-1.5,3.6-1.5s2.6,0.5,3.6,1.5l3.3,3.3c1.1,1.1,2.7,1.7,4.2,1.6c0.3,1.5,0.5,3.1,0.6,4.7
		c-1.5,0.3-3.2-0.2-4.4-1.4l-3.3-3.3c-1-1-2.4-1.6-3.9-1.6c-1.4,0-2.7,0.5-3.8,1.5v0.7l0.2-0.2c0.9-0.9,2.2-1.5,3.6-1.5
		s2.6,0.5,3.6,1.5l3.3,3.3c1.3,1.3,3.1,1.8,4.8,1.6c0,0.2,0,0.4,0,0.7C94.5,66.4,94.4,67.8,94.3,69.1z"/>
	<path fill="#FFF200" d="M75.7,84.1c-0.9,0.9-2.2,1.5-3.6,1.5s-2.6-0.5-3.6-1.5l-1.9-1.9H66l2.3,2.3c1,1,2.4,1.6,3.9,1.6
		c1.5,0,2.9-0.6,3.9-1.6l2.3-2.3h-0.7L75.7,84.1z"/>
	<path fill="#FFF200" d="M73.3,47.9c-0.3,0.1-0.7,0.1-1,0.1c0,0-0.1,0-0.1,0c0,0,0,0-0.1,0c-0.2,0-0.3,0-0.5,0
		c-0.3,0-0.6-0.1-0.9-0.2c-0.8-0.2-1.5-0.7-2.1-1.3l-1.1-1.1l-0.3-0.3l-1.7-1.7l-0.2-0.2c-0.1-0.1-0.2-0.2-0.3-0.3
		c-2.2-1.9-5.5-1.8-7.6,0.3l-3.5,3.5c-0.3,0.3-0.6,0.5-0.9,0.7c0.1,0.1,0.2,0.3,0.3,0.5c0.4-0.2,0.7-0.5,1-0.8l3.5-3.5
		c2-2,5.1-2,7.1,0l0.3,0.3l1.1,1.1l0.4,0.4l0.4,0.4l0.6,0.6l0.5,0.5c0.6,0.6,1.2,1,1.9,1.2c0,0,0,0,0,0c0.3,0.1,0.7,0.2,1.1,0.3
		c0.3,0.1,0.6,0.1,0.9,0.1c0.1,0,0.1,0,0.2,0c0.2,0,0.4,0,0.6-0.1C73.1,48.3,73.2,48.1,73.3,47.9C73.4,47.9,73.3,47.9,73.3,47.9z"/>
</g>
</svg>
